<svg xmlns="http://www.w3.org/2000/svg" width="512" height="512"><path fill="#2F81A6" d="M74.782 232a8 8 0 01-7.889-9.383A192.259 192.259 0 01222.618 66.893a8 8 0 112.764 15.76A176.212 176.212 0 0082.653 225.382 8 8 0 0174.782 232zM287.99 445.229a8 8 0 01-1.372-15.882 176.214 176.214 0 00142.73-142.729 8 8 0 1115.759 2.764 192.259 192.259 0 01-155.725 155.725 8.051 8.051 0 01-1.392.122z"/><circle cx="72" cy="256" r="8"/><circle cx="256" cy="72" r="8"/><circle cx="440" cy="256" r="8"/><circle cx="256" cy="440" r="8"/><path fill="#2F81A6" d="M256 496A240 240 0 0186.294 86.294a240 240 0 11339.411 339.412A238.426 238.426 0 01256 496zm0-464A224 224 0 0097.608 414.392 224 224 0 00414.392 97.608 222.535 222.535 0 00256 32z"/><path fill="#2F81A6" d="M300.248 330.794C312.985 321.7 320 309.339 320 296s-7.015-25.7-19.752-34.794c-9.988-7.134-22.64-11.57-36.248-12.826v-63.9c22.369 2.626 40 15.992 40 31.525a8 8 0 0016 0c0-13.339-7.015-25.7-19.752-34.794-9.988-7.134-22.64-11.57-36.248-12.826V152a8 8 0 00-16 0v16.38c-13.608 1.256-26.26 5.692-36.248 12.826C199.015 190.3 192 202.661 192 216s7.015 25.7 19.752 34.794c9.988 7.134 22.64 11.57 36.248 12.826v63.9c-22.369-2.62-40-15.987-40-31.52a8 8 0 00-16 0c0 13.339 7.015 25.7 19.752 34.794 9.988 7.134 22.64 11.57 36.248 12.826V360a8 8 0 0016 0v-16.38c13.608-1.256 26.26-5.692 36.248-12.826zM304 296c0 15.533-17.631 28.9-40 31.525v-63.05c22.369 2.625 40 15.992 40 31.525zm-96-80c0-15.533 17.631-28.9 40-31.525v63.05c-22.369-2.625-40-15.992-40-31.525z"/></svg>