<svg height="511pt" viewBox="0 1 511 512" width="511pt" xmlns="http://www.w3.org/2000/svg"><path fill="#2F81A6" d="M133.84 371.64a9.842 9.842 0 01-3.828-.761 10.26 10.26 0 01-1.723-.918 10.432 10.432 0 01-1.52-1.25c-.46-.461-.878-.969-1.25-1.52a10.11 10.11 0 01-1.488-3.59c-.133-.648-.191-1.312-.191-1.96s.058-1.309.191-1.95c.13-.64.32-1.27.57-1.87.25-.61.56-1.188.919-1.731.37-.547.789-1.059 1.25-1.52.46-.46.972-.879 1.52-1.238.542-.36 1.12-.672 1.722-.922.61-.25 1.238-.437 1.867-.57a9.98 9.98 0 015.781.57c.61.25 1.192.563 1.73.922a9.653 9.653 0 012.758 2.758c.364.543.672 1.12.922 1.73.25.602.442 1.23.57 1.871s.2 1.301.2 1.95-.07 1.312-.2 1.96c-.128.63-.32 1.258-.57 1.868a9.86 9.86 0 01-.922 1.722 9.478 9.478 0 01-1.238 1.52c-.46.46-.969.879-1.52 1.25-.538.36-1.12.668-1.73.918a9.903 9.903 0 01-3.82.762zm0 0M378.398 371.64a9.922 9.922 0 01-3.816-.762 9.758 9.758 0 01-3.25-2.167 9.502 9.502 0 01-1.242-1.52 10.11 10.11 0 01-1.488-3.59c-.133-.648-.204-1.312-.204-1.96s.07-1.309.204-1.95c.128-.64.32-1.27.57-1.87.25-.61.558-1.188.918-1.731a9.677 9.677 0 011.242-1.52 9.31 9.31 0 011.52-1.238 10.218 10.218 0 013.598-1.492 9.98 9.98 0 013.91 0c.632.133 1.261.32 1.87.57.602.25 1.18.563 1.72.922a9.31 9.31 0 011.519 1.238c.46.461.883.973 1.25 1.52.363.543.672 1.12.922 1.73.25.602.441 1.23.57 1.871.129.641.187 1.301.187 1.95s-.058 1.312-.187 1.96c-.129.63-.32 1.258-.57 1.868a9.991 9.991 0 01-2.172 3.242c-.457.46-.969.879-1.52 1.25a10.074 10.074 0 01-3.59 1.488 10.08 10.08 0 01-1.96.192zm0 0"/><path fill="#2F81A6" d="M210.234 327.094a9.99 9.99 0 00-1.101-.797l-58.906-36.715-47.891-48.25c-10.106-10.262-24.996-12.957-37.637-7.703v-78.895c0-17.546-13.441-31.925-30.601-32.73-9.239-.434-18.645 3.02-25.16 9.238C3.495 136.43.5 143.16.5 150.192c0 7.66.008 17.507.02 28.527.023 26.66.054 59.84-.02 85.894a122.045 122.045 0 0015.754 60.25l34.68 61.39c8.035 14.224 20.62 25.747 35.488 32.5l44.078 25.169v12.933a9.892 9.892 0 00-.441 2.942V502c0 5.523 4.476 10 10 10h88c5.523 0 10-4.477 10-10V379.195c0-19.492-9.102-36.535-27.825-52.101zM218.06 492h-68v-22.203h68zm0-42.203H150.5v-11.68c0-3.59-1.926-6.902-5.043-8.683l-49.531-28.282c-.29-.164-.582-.312-.883-.449-11.188-4.992-20.668-13.617-26.691-24.281l-34.684-61.395a102.004 102.004 0 01-13.164-50.359c.07-26.09.039-59.29.016-85.965-.008-11.016-.016-20.855-.016-28.512 0-1.554.754-3.062 2.242-4.48 2.559-2.441 6.637-3.906 10.414-3.73 6.363.3 11.543 6.019 11.543 12.753v101.36a35.17 35.17 0 00-.887 4.066c-1.664 10.676 1.84 21.637 9.371 29.36l46.301 49.835c3.758 4.047 10.086 4.278 14.133.52 4.043-3.758 4.277-10.086.52-14.133L67.75 275.81c-.066-.07-.133-.141-.203-.211-3.234-3.286-4.68-7.79-3.969-12.36.457-2.922 1.777-5.59 3.86-7.761.351-.32 1.109-1.008 1.472-1.332 5.774-4.563 13.985-4.055 19.203 1.246l48.739 49.105a10.077 10.077 0 001.808 1.441l59.3 36.961c13.708 11.547 20.099 23.094 20.099 36.293zm0 0M511.723 178.723c.007-11.024.015-20.871.015-28.532 0-7.027-2.996-13.757-8.433-18.949-6.516-6.219-15.918-9.668-25.16-9.238-17.165.808-30.606 15.183-30.606 32.73v78.895c-12.637-5.254-27.523-2.563-37.61 7.676l-47.913 48.277-58.907 36.715c-.386.242-.754.508-1.105.797-18.719 15.566-27.82 32.61-27.82 52.101V502c0 5.523 4.476 10 10 10h88c5.523 0 10-4.477 10-10v-42.203a10.02 10.02 0 00-.442-2.942v-12.93l44.074-25.167c14.868-6.758 27.457-18.281 35.489-32.5l34.68-61.395a121.962 121.962 0 0015.753-60.25c-.07-26.054-.039-59.234-.015-85.89zM362.183 492h-68v-22.203h68zm129.555-227.332a101.967 101.967 0 01-13.168 50.36l-34.68 61.394c-6.023 10.664-15.503 19.289-26.69 24.281a9.849 9.849 0 00-.884.45l-49.53 28.28a9.994 9.994 0 00-5.044 8.684v11.68H294.18v-70.602c0-13.199 6.39-24.746 20.101-36.293l59.301-36.96c.656-.41 1.262-.895 1.809-1.442l48.761-49.133c5.196-5.273 13.403-5.781 19.18-1.219.367.332 1.129 1.02 1.477 1.34a14.269 14.269 0 013.855 7.754c.711 4.57-.734 9.074-3.973 12.36l-.199.21-46.39 49.934c-3.758 4.047-3.524 10.375.52 14.133 4.046 3.762 10.374 3.527 14.132-.52l46.3-49.836c7.532-7.726 11.036-18.687 9.372-29.359a34.373 34.373 0 00-.887-4.066v-101.36c0-6.734 5.18-12.457 11.543-12.754 3.77-.183 7.856 1.286 10.414 3.73 1.488 1.419 2.242 2.927 2.242 4.481 0 7.653-.008 17.493-.015 28.508-.024 26.676-.055 59.875.015 85.965zm0 0M362.242 49.188c-43.789-6.555-75.203-21.196-98.855-46.083l-.004-.003c-3.793-3.973-10.082-4.153-14.098-.403-.265.25-.422.395-.43.406C225.2 27.992 193.79 42.633 150 49.188a9.996 9.996 0 00-8.52 9.89V193.86c0 16.43 5.707 32.11 16.075 44.153 10.625 12.347 25.062 25.199 42.902 38.207 18.762 13.676 37.89 24.945 50.68 32.015l.031.016a11.543 11.543 0 009.91-.004l.027-.012c12.79-7.07 31.915-18.34 50.68-32.015 17.84-13.008 32.274-25.86 42.902-38.207 10.368-12.043 16.075-27.723 16.075-44.153V59.08a10 10 0 00-8.52-9.892zm-11.48 144.671c0 11.645-3.989 22.692-11.23 31.106-9.63 11.183-22.927 22.988-39.528 35.09-11.719 8.543-23.617 16.117-33.883 22.238V83.055c0-5.52-4.476-10-10-10-5.523 0-10 4.48-10 10v199.242c-10.27-6.121-22.168-13.7-33.883-22.238-16.601-12.106-29.902-23.91-39.527-35.094-7.242-8.414-11.23-19.461-11.23-31.106V67.562c39.484-7.105 70.605-21.425 94.64-43.562 24.035 22.14 55.156 36.457 94.64 43.562zm0 0"/></svg>