<svg id="Outline" enable-background="new 0 0 512 512" height="512" viewBox="0 0 512 512" width="512" xmlns="http://www.w3.org/2000/svg"><g><path fill="#BBCB47" d="m472 16h-432c-13.2333984 0-24 10.7666016-24 24v336c0 13.2333984 10.7666016 24 24 24h167.3051758l-6.6665039 80h-8.6386719v16h128v-16h-8.6386719l-6.6665039-80h167.3051758c13.2333984 0 24-10.7666016 24-24v-336c0-13.2333984-10.7666016-24-24-24zm-440 24c0-4.4111328 3.5888672-8 8-8h432c4.4111328 0 8 3.5888672 8 8v296h-448zm263.3056641 440h-78.6113281l6.6669922-80h65.2773438zm184.6943359-104c0 4.4111328-3.5888672 8-8 8h-432c-4.4111328 0-8-3.5888672-8-8v-24h448z"/><path fill="#BBCB47" d="m256 464c13.2333984 0 24-10.7661133 24-24s-10.7666016-24-24-24-24 10.7661133-24 24 10.7666016 24 24 24zm0-32c4.4111328 0 8 3.5888672 8 8s-3.5888672 8-8 8-8-3.5888672-8-8 3.5888672-8 8-8z"/><path fill="#BBCB47" d="m176 224c0 3.1616211 1.8623047 6.0263672 4.7509766 7.3105469l72 32c.0302734.0134277.0617676.0222168.092041.0351563.0854492.0368652.1728516.0655518.2592773.0991211.2194824.0854492.4406738.1628418.6647949.2280273.1062012.0308838.2124023.0585938.3198242.085083.220459.0543213.4421387.0980225.6652832.1333008.0976563.0155029.1943359.0340576.2922363.0457764.317627.03833.6359864.0629882.9545899.0629882h.0004883s.0002441 0 .0004883 0c.359375 0 .7182617-.0285645 1.0751953-.0769043.1152344-.015625.2275391-.0445557.3417969-.0651855.2407227-.043335.4802246-.0905762.7172852-.1561279.1347656-.0373535.2661133-.0855713.3994141-.130249.2106934-.0705566.4194336-.1452637.6252441-.2340088.1396484-.0600586.2756348-.1273193.4123535-.1955566.1035156-.0518799.2114258-.0921631.3134766-.1488037l72-40c2.540039-1.4106447 4.1152343-4.0878908 4.1152343-6.9931642v-56c0-.0419922-.0075684-.0825195-.0083008-.1242676-.0036621-.2419434-.0219727-.4819336-.0473633-.7214355-.0090332-.0847168-.0117188-.1704102-.0234375-.2543945-.0444336-.3195801-.1062012-.6359863-.1887207-.9475098-.0158691-.0593262-.0388184-.1157227-.0559082-.1748047-.0722656-.2492676-.1533203-.4954834-.2495117-.7370605-.0412598-.1030273-.0898438-.2019043-.1352539-.3031006-.0859375-.1920166-.1762695-.3814697-.2773438-.5667725-.059082-.1081543-.1220703-.2132568-.1860352-.3186035-.1037598-.1704102-.213623-.3366699-.3303223-.4998779-.0742188-.1036377-.1486816-.2061768-.2277832-.3065186-.043457-.0546875-.0795898-.1135254-.1245117-.1672363l-40-48c-2.2900391-2.7480469-6.125-3.6420898-9.3945313-2.1889648l-72 32c-.0288086.0126953-.0546875.0296631-.083252.0427246-.1687012.0772705-.3322754.1652832-.4956055.2543945-.0864258.0471191-.1757813.0895996-.2600098.1397705-.1948242.1158447-.3828125.2440186-.5681152.3768311-.045166.0322266-.0935059.0598145-.1376953.0927734-.0019531.0014648-.0041504.0026855-.0061035.0041504l-32 24c-.0595703.0446777-.1098633.0981445-.1679688.1442871-.1477051.1171875-.2888184.2397461-.427002.366333-.1152344.1054688-.2287598.2115479-.3369141.322998-.1279297.1317139-.2478027.2686768-.3659668.4083252-.1015625.1201172-.2021484.239624-.2963867.3649902-.1074219.1437988-.2058105.2927246-.3034668.4431152-.0859375.1325684-.1728516.263916-.2507324.401123-.0883789.1552734-.1652832.3156738-.2431641.4765625-.0683594.1416016-.1386719.2814941-.1984863.4267578-.0686035.1665039-.1245117.3376465-.1818848.5089111-.0495605.1479492-.1027832.2940674-.1435547.4449463-.0476074.175293-.0805664.3543701-.1159668.5332031-.0305176.1533203-.0661621.3049316-.0876465.4602051-.0253906.1821289-.0341797.3673096-.0466309.552124-.0107422.15625-.0280762.3110352-.029541.4686279-.0002437.0260012-.0048824.0512698-.0048824.0773928zm16-43.6899414 11.1999512 4.9777832 44.8000488 19.911377v38.4907227l-56-24.8891602zm22.2490234-24.9970703 18.1855469 25.4589844-32.7331543-14.5480957zm105.7509766 55.9799805-56 31.1108398v-37.6967773l56-31.1108398zm-34.2753906-89.5273438 29.9443359 35.9335938-57.3105469 31.8388672-30.1494141-42.2094727z"/><path fill="#BBCB47" d="m154.2172852 162.46875c4.0898438-19.5571289 13.7553711-37.5195313 28.2436523-52.0078125 40.5488281-40.5488281 106.5292969-40.5488281 147.078125 0l11.3144531-11.3134766c-46.7890625-46.7880859-122.9179688-46.7880859-169.7070313 0-18.3977051 18.3981934-30.0566406 41.6518555-33.8146973 66.8706055l-3.6745605-3.6748047-11.3144531 11.3134766 16 16c1.5625 1.5620117 3.609375 2.3432617 5.6572266 2.3432617s4.0947266-.78125 5.6572266-2.3432617l16-16-11.3144531-11.3134766z"/><path fill="#BBCB47" d="m362.3427734 178.3432617-16 16 11.3144531 11.3134766.1254883-.1254883c-4.0898438 19.5571289-13.7553711 37.5195313-28.2436523 52.0078125-40.5488281 40.5488281-106.5292969 40.5488281-147.078125 0l-11.3144531 11.3134766c23.3945312 23.3940429 54.1240234 35.0908203 84.8535156 35.0908203s61.4589844-11.6967773 84.8535156-35.0908203c18.3977051-18.3981934 30.0566406-41.6518555 33.8146973-66.8706055l3.6745605 3.6748047 11.3144531-11.3134766-16-16c-3.1249999-3.1240234-8.1894531-3.1240234-11.3144531 0z"/></g></svg>
