<svg id="Outline" enable-background="new 0 0 512 512" height="512" viewBox="0 0 512 512" width="512" xmlns="http://www.w3.org/2000/svg"><path fill="#BBCB47" d="m456 113.7773438c0-19.8752442-8.873291-37.7060547-22.8520508-49.7773438h6.8520508c4.4179688 0 8-3.5820313 8-8v-32c0-4.4179688-3.5820313-8-8-8h-368c-4.4179688 0-8 3.5820313-8 8v32c0 4.4179688 3.5820313 8 8 8h6.8520508c-13.9787598 12.0712891-22.8520508 29.9020996-22.8520508 49.7773438 0 27.84375 23.0183105 51.5795898 51.25 54.0039063-3.270752 2.5251465-6.355957 5.369873-9.1972656 8.5283203-1.9228516 2.1376953-2.5507813 5.1425781-1.6455078 7.8710938.90625 2.7294922 3.2070313 4.7617188 6.0263672 5.3242188l11.7138672 2.3388672c12.387207 2.4833984 22.4033203 4.9125977 30.1728516 10.7268066-5.1481934 3.6442871-9.5588379 8.3227539-13.0195313 13.8620605l-2.0800781 3.3203125c-1.7587891 2.8066406-1.6054688 6.4072266.3857422 9.0546875.2280273.3034668.4794922.581543.7424316.8444824l-.005127.005127 12.6894531 12.6884766c3.78125 3.7819824 6.484375 8.5319824 7.8806152 13.6542969h-6.9138183c-13.2333984 0-24 10.7666016-24 24s10.7666016 24 24 24h8v16c-4.2626953 0-7.7773438 3.3427734-7.9902344 7.6005859l-8 160c-.109375 2.1884766.6835938 4.3251953 2.1933594 5.9130859 1.5107422 1.5878905 3.6054688 2.486328 5.796875 2.486328h224c2.1914063 0 4.2861328-.8984375 5.796875-2.4863281 1.5097656-1.5878906 2.3027344-3.7246094 2.1933594-5.9130859l-8-160c-.2128906-4.2578126-3.7275391-7.600586-7.9902344-7.600586v-16h8c13.2333984 0 24-10.7666016 24-24s-10.7666016-24-24-24h-6.9138184c1.3962402-5.1220703 4.0998535-9.8720703 7.8815918-13.6533203l12.6894531-12.6894531-.0056152-.0056152c.2626953-.2629395.513916-.5407715.7419434-.8439941 1.9912109-2.6474609 2.1445313-6.2480469.3857422-9.0546875l-2.0751953-3.3125c-3.4643555-5.5449219-7.876709-10.2255859-13.0236816-13.8696289 7.7692871-5.8144531 17.7836914-8.2434082 30.1662598-10.7260742l11.7197266-2.3398438c2.8193359-.5625 5.1201172-2.5947266 6.0263672-5.3242188.9052734-2.7285156.2773438-5.7333984-1.6455078-7.8710938-2.8413086-3.1584473-5.9267578-6.0029297-9.1977539-8.5283203 28.2319334-2.4238281 51.2504881-26.1599121 51.2504881-54.0039062zm-376-65.7773438v-16h352v16zm247.8310547 174.09375c-9.3237305 5.1796875-17.0803223 12.3730469-22.8481445 20.9887695l6.2868652-15.717041c1.1535645-2.267334 2.5246582-4.3579102 4.1325684-6.263916.6464844-.7802734 1.3554688-1.5478516 2.109375-2.2832031.0908203-.0849609.1816406-.171875.2724609-.2587891l.1269531-.1210938c4.3769531-4.1318359 9.8730469-6.9111328 15.9013672-8.0439453.0507813-.0078125.1015625-.0166016.1523438-.0263672 6.0644531-1.1123047 12.1982422-.515625 17.7646484 1.6582031 1.3496094.5244141 2.6542969 1.1396484 3.90625 1.8398438-9.6425781.6298829-19.1074219 3.3945313-27.8046875 8.2275391zm31.1049805 7.6557617-1.2827148 1.2827148c-6.7746583 6.7753907-11.2797852 15.588379-12.935547 24.9677735h-28.8579102c4.5039063-8.3220215 11.2722168-15.2148438 19.7416992-19.9208984 7.2714845-4.0393067 15.248047-6.1689453 23.3344728-6.3295899zm-174.7670899-7.6557617c-8.6982422-4.8330078-18.1591797-7.5976563-27.8027344-8.2265625 1.2548828-.7021484 2.5615234-1.3193359 3.9160156-1.8457031 5.5478516-2.1679688 11.6875-2.765625 17.7529297-1.6533203.0498047.0097656.0996094.0175781.1503906.0263672 6.0292969 1.1318359 11.5253906 3.9121094 15.9462891 8.0839844l.2998047.2851563c.7753906.7519531 1.5039063 1.5380859 2.2138672 2.3955078 1.5625 1.8520508 2.9333496 3.9414063 4.0842285 6.2050781l6.2873535 15.7182617c-5.7678222-8.6157227-13.524414-15.8090821-22.8481445-20.9887696zm11.9711914 33.90625h-28.8579102c-1.6557617-9.3791504-6.1611328-18.1923828-12.9355469-24.9677734l-1.2836914-1.2836914c8.0869141.1604004 16.0639648 2.2905273 23.3354492 6.3305664 8.4694825 4.7060547 15.2380372 11.5988769 19.7416993 19.9208984zm59.8598633-24.4326172-33.6806641-11.2265625c4.8066406-4.1044922 10.2480469-7.2412109 16.2216797-9.34375 5.5888672-1.9882812 11.4628907-2.9970703 17.4589844-2.9970703s11.8701172 1.0087891 17.484375 3.0058594c5.9541016 2.0957031 11.3945313 5.2333984 16.1962891 9.3339844zm-8-77.0864258c-5.3620605-4.171875-12.5148926-7.8535156-22.0664063-10.2436523-1.0859375-.2705078-2.1682129-.4921875-3.2470703-.690918-1.2329102-10.248291-1.9204102-31.1962891 8.46875-51.9682617 5.2827149-10.5649414 11.6035157-17.3615723 16.8447266-21.6125488zm-31.1552734-70.059082c-1.0402832 2.0795898-1.9787598 4.1560059-2.840332 6.2241211-2.2312012-5.2661133-5.0161133-10.2614746-8.3500977-14.887207-3.1855469-4.4196778-6.7478028-8.3469239-10.6306153-11.7587891h35.9934082c-4.8769531 5.1286621-9.8596191 11.796875-14.1723632 20.421875zm-1.4794922 74.3291016c2.1455078.0986328 4.4003906.4384766 6.6923828 1.0097656 15.6015625 3.9033203 21.8515625 11.9287109 24.3535156 17.9853516 1.4375 3.4638672 1.5791016 6.1171875 1.5888672 6.3400879v8.3903809c-2.5561523.2993164-5.0849609.7453613-7.5810547 1.3305664-5.8752441-12.5827637-12.8657227-20.9755859-20.8408203-24.9624023-6.3027344-3.1523438-14.0390625-4.6259766-23.0087891-4.3720703-.0187988.0004883-.0385742.0024414-.0576172.0029297 5.8393555-4.1083986 12.1706543-6.0302736 18.8535157-5.7246095zm-17.1264649 21.7060547c5.7539063-.036377 10.5236816.8688965 14.184082 2.6982422 4.2954102 2.1477051 8.8325195 7.8928223 12.8791504 16.1435547-5.6523438 2.8461914-10.8796387 6.465332-15.592041 10.8544922-.2636719.2460938-.5166016.5078125-.7770996.7590332-.0036621-.0046387-.0070801-.0095215-.0109863-.013916-.3835449-.4633789-.7927246-.9172363-1.2011719-1.3710938-.9121093-10.7705079-4.1352539-20.5905762-9.4819336-29.0703125zm49.7612305 65.3095703v10.2333984h-18.5839844l-7.5820313-18.9555664zm16 0 26.1660156-8.722168-7.5820312 18.9555664h-18.5839844zm22.6984863-46.4689942c4.0454102-8.2495117 8.5827637-13.9938965 12.8796387-16.142334 3.6572266-1.828125 8.4370117-2.7260742 14.1850586-2.6967773-5.3491211 8.4819336-8.5717773 18.2998047-9.4838867 29.067627-.3952637.4389648-.7927246.8791504-1.1533203 1.3146973-.0197754.0234375-.0378418.0490723-.0576172.0727539-.2631836-.2539063-.5185547-.5183105-.7851563-.7670898-4.7097168-4.3867189-9.9382324-8.0053712-15.5847168-10.8488771zm28.7448731-34.8249511c-8.9667969-.2587891-16.7177734 1.2197266-23.0214844 4.3720703-7.9760742 3.9882813-14.9672852 12.3806152-20.8408203 24.9633789-2.4975586-.5856934-5.0263672-1.0317383-7.5810547-1.3310547v-8.3930664c.0126953-.28125.1699219-2.9179688 1.5947266-6.3505859 2.4960938-6.0439453 8.7460938-14.0683594 24.3378906-17.9707031 2.3027344-.5732422 4.5576172-.9130859 6.7128906-1.0117188 6.6799316-.3161621 13.0107422 1.6152344 18.8447266 5.7241211-.0153809-.0004883-.0314942-.0019532-.046875-.0024414zm-51.4433594-9.9926758v-84.5141602c5.2412109 4.2509766 11.5620117 11.0480957 16.8447266 21.6132813 10.3918457 20.7749023 9.7026367 41.7216797 8.4682617 51.9677734-1.0810547.1992188-2.1655273.4208984-3.2553711.6923828-9.5471192 2.3896485-16.6975098 6.0703125-22.0576172 10.2407227zm33.9956055-63.8342285c-.8615723-2.0678711-1.8000488-4.1442871-2.840332-6.223877-4.3127441-8.625-9.2954102-15.2932129-14.1723633-20.421875h35.9936523c-3.8830566 3.4118652-7.4453125 7.3391113-10.6308594 11.7587891-3.3339843 4.6254882-6.1188965 9.6208496-8.3500976 14.8869629zm-225.9956055 23.1315918c0-21.2375488 13.3740234-39.4016113 32.1381836-46.5380859-11.9399414 11.9145508-19.3383789 28.3781738-19.3383789 46.5380859 0 13.7370605 5.1445313 26.2885742 13.5957031 35.8535156-15.2226562-5.4526367-26.3955078-19.6723633-26.3955078-35.8535156zm28.7998047 0c0-27.4472657 22.3300781-49.7773438 49.7783203-49.7773438h1.421875c16.4150391 0 30.8603516 7.4980469 40.6738281 21.1142578 11.5773926 16.0629883 14.9047852 37.8925781 9.2480469 59.2722168-6.9941406 1.9594727-13.6101074 5.628418-19.578125 10.9348145-1.7602539 1.5705566-3.4416504 3.2666016-5.0422363 5.0656738-2.6958008-1.4987793-5.5019531-2.7666016-8.3999023-3.7844238 9.2548827-8.2441407 15.0983886-20.2399903 15.0983886-33.5800782 0-20.7226563-16.859375-37.5820313-37.5820313-37.5820313-17.4609375 0-31.6660156 14.2050781-31.6660156 31.6650391 0 10.8160019 6.4089432 20.1634216 15.6286621 24.4440765 5.2730713 2.4482574 11.3039551-1.4803772 11.3039551-7.2940826v-.0000153c0-3.0992432-1.7885437-5.924118-4.5982971-7.2320099-3.7373199-1.7396545-6.3343201-5.5312042-6.3343201-9.9179688 0-8.6376953 7.0273438-15.6650391 15.6660156-15.6650391 11.9003906 0 21.5820313 9.6816406 21.5820313 21.5820313 0 15.9785158-12.9990234 28.9775392-28.9775391 28.9775392-21.0761718 0-38.2226562-17.1464844-38.2226562-38.2226562zm21.1503906 63.3417968c16.7539063-10.1044922 38.1337891-10.6044922 52.21875.296875 1.0458984.8027344 2.0996094 1.6982422 3.1455078 2.6748047 4.9885254 4.6357422 8.7607422 10.2397461 11.2338867 16.5942383-2.4614258-.8828125-5.005127-1.5756836-7.6157227-2.0541992-.0566406-.0097656-.1142578-.0205078-.1728516-.0292969-2.8759766-.5185547-5.7988281-.78125-8.6894531-.78125-4.0637207 0-8.0529785.5063477-11.9211426 1.4853516-10.278076-10.8271485-23.4260253-15.0141602-38.1989745-18.1865235zm78.0498047 302.8808594h-16v-104c0-4.4111328 3.5888672-8 8-8s8 3.5888672 8 8zm64 0h-16v-104c0-4.4111328 3.5888672-8 8-8s8 3.5888672 8 8zm64 0h-16v-104c0-4.4111328 3.5888672-8 8-8s8 3.5888672 8 8zm16 0v-104c0-13.2333984-10.7666016-24-24-24s-24 10.7666016-24 24v104h-16v-104c0-13.2333984-10.7666016-24-24-24s-24 10.7666016-24 24v104h-16v-104c0-13.2333984-10.7666016-24-24-24s-24 10.7666016-24 24v104h-15.5898438l7.2001953-144h192.7792969l7.2001953 144zm-176-160v-16h176v16zm200-48c4.4111328 0 8 3.5888672 8 8s-3.5888672 8-8 8h-224c-4.4111328 0-8-3.5888672-8-8s3.5888672-8 8-8zm-16.1489258-76.6933594c-3.8718262-.9802246-7.8598633-1.4863281-11.9213867-1.4863281-2.8896484 0-5.8105469.2626953-8.6865234.7802734-.0585938.0097656-.1171875.0195313-.1767578.0302734-2.6098633.4790039-5.1530762 1.171875-7.6132813 2.0532227 2.4746094-6.3554688 6.25-11.9628906 11.2460938-16.605957 1.0322266-.9638672 2.0859375-1.859375 3.1572266-2.6816406 14.0634766-10.8867188 35.4414063-10.3828125 52.1933594-.2773438-14.7697755 3.1716309-27.9191896 7.3586426-38.1987306 18.1875zm21.1264649-43.3066406c-15.9785157 0-28.9775391-12.9990234-28.9775391-28.9775391 0-11.9003906 9.6816406-21.5820313 21.5820313-21.5820313 8.6386719 0 15.6660156 7.0273438 15.6660156 15.6650391 0 4.3867645-2.5970154 8.1783142-6.3343201 9.9179688-2.8097534 1.3078918-4.5982971 4.1327667-4.5982971 7.2320099v.0000153c0 5.8137054 6.0308838 9.7423401 11.3039551 7.2940826 9.2197266-4.2806549 15.6286621-13.6280746 15.6286621-24.4440765 0-17.4599609-14.2050781-31.6650391-31.6660156-31.6650391-20.7226563 0-37.5820313 16.859375-37.5820313 37.5820312 0 13.3383789 5.8417969 25.3327637 15.0944824 33.5766602-2.8977051 1.0180664-5.703125 2.2861328-8.3977051 3.7854004-1.6025391-1.8007813-3.2866211-3.4987793-5.0512695-5.072998-5.9602051-5.2993164-12.578125-8.96875-19.5681152-10.9282227-5.6557617-21.378418-2.328125-43.2067871 9.2487793-59.269043 9.8134765-13.6162109 24.258789-21.1142578 40.6738281-21.1142578h1.421875c27.4482422 0 49.7783203 22.3300781 49.7783203 49.7773438 0 21.0761718-17.1464844 38.2226562-38.2226562 38.2226562zm40.6269531-2.3691406c8.4511719-9.5649414 13.5957031-22.1164551 13.5957031-35.8535156 0-18.1599121-7.3984375-34.6235352-19.3383789-46.5380859 18.7641602 7.1364745 32.1381836 25.300537 32.1381836 46.5380859 0 16.1811523-11.1728516 30.4008789-26.3955078 35.8535156z"/></svg>
