<svg id="Outline" enable-background="new 0 0 512 512" height="512" viewBox="0 0 512 512" width="512" xmlns="http://www.w3.org/2000/svg"><g><path fill="#BBCB47" d="m144.4891357 239.2826538c1.6991577 13.0175781 7.8804321 24.6380005 16.9470215 33.2650757-18.9431152 3.1416626-33.4361572 19.6321411-33.4361572 39.4522705v48c0 4.418457 3.581543 8 8 8h240c4.418457 0 8-3.581543 8-8v-48c0-19.8095093-14.4776611-36.2925415-33.4058838-39.4468384.3331909-.3178101.6730957-.6261597.9996338-.953064 8.8433228-8.8335571 14.3502808-20.1134033 15.9246826-32.3187866 18.4730225-3.5288696 32.4815674-19.7955322 32.4815674-39.281311v-112c0-22.0561523-17.9438477-40-40-40h-24.7949219c-1.5405273-7.6367188-5.2861328-14.6542969-10.918457-20.2866211-7.5532227-7.5537109-17.5991211-11.7133789-28.2866211-11.7133789h-80c-57.3457031 0-104 46.6542969-104 104v80c0 19.4884033 14.0123901 35.7567139 32.4891357 39.2826538zm-16.4891357-39.2826538v-8h16v30.6239014c-9.3113403-3.3023682-16-12.1945191-16-22.6239014zm216 88c13.2338867 0 24 10.7661133 24 24v40h-32v-32c0-4.418457-3.581543-8-8-8s-8 3.581543-8 8v32h-128v-32c0-4.418457-3.581543-8-8-8s-8 3.581543-8 8v32h-32v-40c0-13.2338867 10.7661133-24 24-24h40.8049316c3.7164917 18.2357178 19.8779908 32 39.1950684 32h16c19.3170776 0 35.4785767-13.7642822 39.1950684-32zm-118.6289062 0h61.2578125c-3.3017579 9.3125-12.1987305 16-22.6289063 16h-16c-10.4301758 0-19.3271484-6.6875-22.6289062-16zm114.9086914-27.7138672c-7.5449219 7.553711-17.5883789 11.7138672-28.2797852 11.7138672h-16-80-16c-22.0561523 0-40-17.9438477-40-40v-5.5067749c8.6057129 12.9500122 23.3197632 21.5067749 40 21.5067749 16.578186 0 31.2184448-8.4493408 39.8457642-21.2664185 4.2672119 3.890564 9.9382324 6.2664185 16.1542358 6.2664185s11.8870239-2.3758545 16.1542358-6.2664185c8.6273194 12.8170777 23.2675782 21.2664185 39.8457642 21.2664185 16.6802368 0 31.3942871-8.5567627 40-21.5067749v5.5067749c0 10.6914063-4.1601562 20.7348633-11.7202148 28.2861328zm-30.1928711-92.2319336c.5878906-.0366211 1.2133789-.0541992 1.9130859-.0541992 5.236084 0 10.2296143 1.2260132 14.8419189 3.6434326 5.7974854 3.0438232 10.4708252 7.7171631 13.5146484 13.5146484 2.4174195 4.6123047 3.6434327 9.605835 3.6434327 14.841919 0 17.6450195-14.3549805 32-32 32s-32-14.3549805-32-32c0-5.3227539 1.3344727-10.5927734 3.8598633-15.2412109.0175781-.0324097.0339966-.0651855.0510864-.0977783.0045776-.008667.0090942-.0172729.0136108-.026001.0158081-.0303955.0322876-.0606689.0476074-.0910645 5.350586-9.6772461 15.0869141-15.8349609 26.1147462-16.4897461zm-45.6472779 38.3481446c-.2802124.8154907-.4396362 1.6870117-.4396362 2.5976562 0 4.4111328-3.5888672 8-8 8s-8-3.5888672-8-8c0-.9106445-.1594238-1.7821655-.4396362-2.5976563.2808227-2.0961914.4396362-4.2305297.4396362-6.4023437 0-2.7264404-.2405396-5.3964233-.6793823-8h8.6793823c2.9198608 0 5.8511963-.1784668 8.7678833-.49646-.5031128 2.7974854-.7678833 5.6416626-.7678833 8.49646 0 2.171814.1588135 4.3061523.4396362 6.4023438zm-32.4396362-6.4023438c0 17.6450195-14.3549805 32-32 32s-32-14.3549805-32-32 14.3549805-32 32-32 32 14.3549805 32 32zm136 22.6239014v-30.6239014h16v8c0 10.4293823-6.6886597 19.3215332-16 22.6239014zm-240-102.6239014c0-48.5234375 39.4765625-88 88-88h80c6.4135742 0 12.4414063 2.4956055 16.9731445 7.0268555 4.53125 4.5317383 7.0268555 10.5595703 7.0268555 16.9731445 0 4.418457 3.581543 8 8 8h32c13.2333984 0 24 10.7666016 24 24v88h-24c-2.4189453 0-4.7802734-.3520508-7.0483398-1.0488281-3.9770508-6.5043945-9.3984375-11.9257813-15.902832-15.902832-.6967774-2.2680665-1.0488282-4.6293946-1.0488282-7.0483399v-40c0-4.418457-3.581543-8-8-8s-8 3.581543-8 8c0 14.7932129-5.0938721 29.0345459-14.4005127 40.4320068-14.0084839 1.8544312-26.3356323 9.7000122-33.980957 21.6265259-1.5164795.3805542-3.0354004.7252197-4.5438232.9888306-3.6494141.6323242-7.3754883.9526367-11.0747071.9526367h-14.4576416c-8.3126221-14.3325195-23.8148193-24-41.5423584-24s-33.2297363 9.6674805-41.5423584 24h-30.4576416z"/><path fill="#BBCB47" d="m491.4570313 447.7856445-43.4570313-20.8231811v-2.9624634c0-4.418457-3.581543-8-8-8h-176v-24c0-4.418457-3.581543-8-8-8h-168c-4.418457 0-8 3.581543-8 8v24h-24c-4.418457 0-8 3.581543-8 8h-24c-4.418457 0-8 3.581543-8 8v48c0 4.418457 3.581543 8 8 8h24c0 4.418457 3.581543 8 8 8h384c4.418457 0 8-3.581543 8-8v-3.1467896l43.6953125-22.7579956c2.6879883-1.3999023 4.3540039-4.1982422 4.3037109-7.2285156-.0507812-3.0302734-1.809082-5.7714844-4.5419921-7.0810547zm-395.4570313-47.7856445h152v16h-80-72zm-64 72v-32h16v32zm32-40h24 72v48h-96zm112 0h80 80v48h-160zm176 48v-48h80v48zm96-13.1865234v-22.109375l22.1088867 10.5942383z"/><path fill="#BBCB47" d="m272 232c-4.418457 0-8 3.581543-8 8 0 4.4111328-3.5888672 8-8 8s-8-3.5888672-8-8c0-4.418457-3.581543-8-8-8s-8 3.581543-8 8c0 13.2338867 10.7661133 24 24 24s24-10.7661133 24-24c0-4.418457-3.581543-8-8-8z"/><path fill="#BBCB47" d="m200 192c-4.418457 0-8 3.581543-8 8v8c0 4.418457 3.581543 8 8 8s8-3.581543 8-8v-8c0-4.418457-3.581543-8-8-8z"/><path fill="#BBCB47" d="m312 216c4.418457 0 8-3.581543 8-8v-8c0-4.418457-3.581543-8-8-8s-8 3.581543-8 8v8c0 4.418457 3.581543 8 8 8z"/></g></svg>
