<svg height="511pt" viewBox="0 1 511 511.99969" width="511pt" xmlns="http://www.w3.org/2000/svg"><path fill="#2F81A6" d="m133.839844 371.640625c-.648438 0-1.308594-.058594-1.960938-.191406-.628906-.128907-1.257812-.320313-1.867187-.570313-.601563-.25-1.179688-.558594-1.722657-.917968-.546874-.371094-1.058593-.789063-1.519531-1.25-.460937-.460938-.878906-.96875-1.25-1.519532-.359375-.539062-.667969-1.121094-.917969-1.722656-.25-.609375-.441406-1.238281-.570312-1.867188-.132812-.648437-.191406-1.3125-.191406-1.960937s.058594-1.308594.191406-1.949219c.128906-.640625.320312-1.269531.570312-1.871094.25-.609374.558594-1.1875.917969-1.730468.371094-.546875.789063-1.058594 1.25-1.519532.460938-.460937.972657-.878906 1.519531-1.238281.542969-.359375 1.121094-.671875 1.722657-.921875.609375-.25 1.238281-.4375 1.867187-.570312 1.292969-.257813 2.621094-.257813 3.910156 0 .640626.132812 1.269532.320312 1.871094.570312.609375.25 1.191406.5625 1.730469.921875.550781.359375 1.058594.777344 1.519531 1.238281.460938.460938.878906.972657 1.238282 1.519532.363281.542968.671874 1.121094.921874 1.730468.25.601563.441407 1.230469.570313 1.871094s.199219 1.300782.199219 1.949219-.070313 1.3125-.199219 1.960937c-.128906.628907-.320313 1.257813-.570313 1.867188-.25.601562-.558593 1.183594-.921874 1.722656-.359376.550782-.777344 1.058594-1.238282 1.519532-.460937.460937-.96875.878906-1.519531 1.25-.539063.359374-1.121094.667968-1.730469.917968-.601562.25-1.230468.441406-1.871094.570313-.640624.128906-1.296874.191406-1.949218.191406zm0 0"/><path fill="#2F81A6" d="m378.398438 371.640625c-.648438 0-1.308594-.058594-1.949219-.191406-.640625-.128907-1.269531-.320313-1.867188-.570313-.613281-.25-1.191406-.558594-1.730469-.917968-.550781-.371094-1.0625-.789063-1.519531-1.25-.460937-.460938-.882812-.96875-1.242187-1.519532-.359375-.539062-.667969-1.121094-.917969-1.722656-.25-.609375-.441406-1.238281-.570313-1.867188-.132812-.648437-.203124-1.3125-.203124-1.960937s.070312-1.308594.203124-1.949219c.128907-.640625.320313-1.269531.570313-1.871094.25-.609374.558594-1.1875.917969-1.730468.359375-.546875.78125-1.058594 1.242187-1.519532.457031-.460937.96875-.878906 1.519531-1.238281.539063-.359375 1.117188-.671875 1.730469-.921875.597657-.25 1.226563-.4375 1.867188-.570312 1.292969-.257813 2.621093-.257813 3.910156 0 .632813.132812 1.261719.320312 1.871094.570312.601562.25 1.179687.5625 1.71875.921875.550781.359375 1.0625.777344 1.519531 1.238281.460938.460938.882812.972657 1.25 1.519532.363281.542968.671875 1.121094.921875 1.730468.25.601563.441406 1.230469.570313 1.871094.128906.640625.1875 1.300782.1875 1.949219s-.058594 1.3125-.1875 1.960937c-.128907.628907-.320313 1.257813-.570313 1.867188-.25.601562-.558594 1.183594-.921875 1.722656-.367188.550782-.789062 1.058594-1.25 1.519532-.457031.460937-.96875.878906-1.519531 1.25-.539063.359374-1.117188.667968-1.71875.917968-.609375.25-1.238281.441406-1.871094.570313-.648437.128906-1.308594.191406-1.960937.191406zm0 0"/><path fill="#2F81A6" d="m210.234375 327.09375c-.347656-.289062-.71875-.558594-1.101563-.796875l-58.90625-36.714844-47.890624-48.25c-10.105469-10.261719-24.996094-12.957031-37.636719-7.703125v-78.894531c0-17.546875-13.441407-31.925781-30.601563-32.730469-9.238281-.433594-18.644531 3.019532-25.160156 9.238282-5.441406 5.1875-8.4375 11.917968-8.4375 18.949218 0 7.660156.007812 17.507813.019531 28.527344.023438 26.660156.054688 59.839844-.019531 85.894531-.058594 21.066407 5.390625 41.902344 15.753906 60.25l34.679688 61.390625c8.035156 14.222656 20.621094 25.746094 35.488281 32.5l44.078125 25.167969v12.933594c-.289062.929687-.441406 1.917969-.441406 2.941406v42.203125c0 5.523438 4.476562 10 10 10h88c5.523437 0 10-4.476562 10-10v-122.804688c0-19.492187-9.101563-36.535156-27.824219-52.101562zm7.824219 164.90625h-68v-22.203125h68zm0-42.203125h-67.558594v-11.679687c0-3.589844-1.925781-6.902344-5.042969-8.683594l-49.53125-28.28125c-.289062-.164063-.582031-.3125-.882812-.449219-11.1875-4.992187-20.667969-13.617187-26.691407-24.28125l-34.683593-61.394531c-8.660157-15.335938-13.214844-32.75-13.164063-50.359375.070313-26.089844.039063-59.289063.015625-85.964844-.007812-11.015625-.015625-20.855469-.015625-28.511719 0-1.554687.753906-3.0625 2.242188-4.480468 2.558594-2.441407 6.636718-3.90625 10.414062-3.730469 6.363282.300781 11.542969 6.019531 11.542969 12.753906v101.359375c-.375 1.328125-.667969 2.683594-.886719 4.066406-1.664062 10.675782 1.839844 21.636719 9.371094 29.359375l46.300781 49.835938c3.757813 4.046875 10.085938 4.277343 14.132813.519531 4.042968-3.757812 4.277344-10.085938.519531-14.132812l-46.390625-49.933594c-.066406-.070313-.132812-.140625-.203125-.210938-3.234375-3.285156-4.679687-7.789062-3.96875-12.359375.457031-2.921875 1.777344-5.589843 3.859375-7.761719.351562-.320312 1.109375-1.007812 1.472656-1.332031 5.773438-4.5625 13.984375-4.054687 19.203125 1.246094l48.738281 49.105469c.542969.546875 1.152344 1.03125 1.808594 1.441406l59.300782 36.960938c13.707031 11.546874 20.097656 23.09375 20.097656 36.292968zm0 0"/><path fill="#2F81A6" d="m511.722656 178.722656c.007813-11.023437.015625-20.871094.015625-28.53125 0-7.027344-2.996093-13.757812-8.433593-18.949218-6.515626-6.21875-15.917969-9.667969-25.160157-9.238282-17.164062.808594-30.605469 15.183594-30.605469 32.730469v78.894531c-12.636718-5.253906-27.523437-2.5625-37.609374 7.675782l-47.914063 48.277343-58.90625 36.714844c-.386719.242187-.753906.507813-1.105469.796875-18.71875 15.566406-27.820312 32.609375-27.820312 52.101562v122.804688c0 5.523438 4.476562 10 10 10h88c5.523437 0 10-4.476562 10-10v-42.203125c0-1.023437-.15625-2.011719-.441406-2.941406v-12.929688l44.074218-25.167969c14.867188-6.757812 27.457032-18.28125 35.488282-32.5l34.679687-61.394531c10.367187-18.347656 15.816406-39.183593 15.753906-60.25-.070312-26.054687-.039062-59.234375-.015625-85.890625zm-149.539062 313.277344h-68v-22.203125h68zm129.554687-227.332031c.050781 17.609375-4.503906 35.023437-13.167969 50.359375l-34.679687 61.394531c-6.023437 10.664063-15.503906 19.289063-26.691406 24.28125-.304688.136719-.597657.285156-.882813.449219l-49.53125 28.28125c-3.121094 1.78125-5.042968 5.09375-5.042968 8.683594v11.679687h-67.5625v-70.601563c0-13.199218 6.390624-24.746093 20.101562-36.292968l59.300781-36.960938c.65625-.410156 1.261719-.894531 1.808594-1.441406l48.761719-49.132812c5.195312-5.273438 13.402344-5.78125 19.179687-1.21875.367188.332031 1.128907 1.019531 1.476563 1.339843 2.066406 2.140625 3.398437 4.820313 3.855468 7.753907.710938 4.570312-.734374 9.074218-3.972656 12.359374-.066406.070313-.132812.140626-.199218.210938l-46.390626 49.933594c-3.757812 4.046875-3.523437 10.375.519532 14.132812 4.046875 3.761719 10.375 3.527344 14.132812-.519531l46.300782-49.835937c7.53125-7.726563 11.035156-18.6875 9.371093-29.359376-.214843-1.382812-.511719-2.738281-.886719-4.066406v-101.359375c0-6.734375 5.179688-12.457031 11.542969-12.753906 3.769531-.183594 7.855469 1.285156 10.414063 3.730469 1.488281 1.417968 2.242187 2.925781 2.242187 4.480468 0 7.652344-.007812 17.492188-.015625 28.507813-.023437 26.675781-.054687 59.875.015625 85.964844zm0 0"/><path fill="#2F81A6" d="m362.242188 49.1875c-43.789063-6.554688-75.203126-21.195312-98.855469-46.082031 0 0-.003907-.003907-.003907-.003907-3.792968-3.972656-10.082031-4.152343-14.097656-.402343-.265625.25-.421875.394531-.429687.40625-23.65625 24.886719-55.066407 39.527343-98.855469 46.082031-4.898438.730469-8.519531 4.9375-8.519531 9.890625v134.78125c0 16.429687 5.707031 32.109375 16.074219 44.152344 10.625 12.347656 25.0625 25.199219 42.902343 38.207031 18.761719 13.675781 37.890625 24.945312 50.679688 32.015625l.03125.015625c3.136719 1.488281 6.773437 1.488281 9.910156-.003906l.027344-.011719c12.789062-7.070313 31.914062-18.339844 50.679687-32.015625 17.839844-13.007812 32.273438-25.859375 42.902344-38.207031 10.367188-12.042969 16.074219-27.722657 16.074219-44.152344v-134.78125c0-4.953125-3.625-9.160156-8.519531-9.890625zm-11.480469 144.671875c0 11.644531-3.988281 22.691406-11.230469 31.105469-9.628906 11.183594-22.925781 22.988281-39.527344 35.089844-11.71875 8.542968-23.617187 16.117187-33.882812 22.238281v-199.238281c0-5.519532-4.476563-10-10-10-5.523438 0-10 4.480468-10 10v199.242187c-10.269532-6.121094-22.167969-13.699219-33.882813-22.238281-16.601562-12.105469-29.902343-23.910156-39.527343-35.09375-7.242188-8.414063-11.230469-19.460938-11.230469-31.105469v-126.296875c39.484375-7.105469 70.605469-21.425781 94.640625-43.5625 24.035156 22.140625 55.15625 36.457031 94.640625 43.5625zm0 0"/></svg>
